<svg xmlns="http://www.w3.org/2000/svg" xmlns:xlink="http://www.w3.org/1999/xlink" width="1366" height="768" viewBox="0 0 1366 768"><defs><clipPath id="a"><rect width="1366" height="768" fill="#fff" stroke="#707070" stroke-width="1"/></clipPath><linearGradient id="b" x1="0.405" y1="0.311" x2="1.175" y2="0.795" gradientUnits="objectBoundingBox"><stop offset="0" stop-color="#0a243d"/><stop offset="1" stop-color="#41a8ff"/></linearGradient></defs><g clip-path="url(#a)"><path d="M0,0H1115.74L313.521,768H0Z" fill="url(#b)"/><g transform="matrix(0.259, -0.966, 0.966, 0.259, 430.242, 316.203)"><g transform="translate(-786.27 -403.019)" opacity="0.3"><path d="M1334.62,776.865l-319.484,31.5,159.741-88.5Z" fill="none" stroke="rgba(65,168,255,0.7)" stroke-miterlimit="10" stroke-width="1"/><path d="M1082.632,596.874l-67.5,211.489,159.741-88.5Z" fill="none" stroke="rgba(65,168,255,0.7)" stroke-miterlimit="10" stroke-width="1"/><path d="M1105.327,733.334,943.118,1068.28l253.819-260.595Z" transform="translate(1.76)" fill="none" stroke="rgba(65,168,255,0.7)" stroke-miterlimit="10" stroke-width="1"/><path d="M1015.136,808.363l67.5-211.489L947.639,776.865Z" fill="none" stroke="rgba(65,168,255,0.7)" stroke-miterlimit="10" stroke-width="1"/><path d="M1015.136,808.363l-97.352,140.3,29.854-171.8Z" fill="none" stroke="rgba(65,168,255,0.7)" stroke-miterlimit="10" stroke-width="1"/><path d="M1015.136,808.363l-97.352,140.3L1095.1,1031.83Z" fill="none" stroke="rgba(65,168,255,0.7)" stroke-miterlimit="10" stroke-width="1"/><path d="M674.918,666.784l407.714-69.91L947.639,776.865Z" fill="none" stroke="rgba(65,168,255,0.7)" stroke-miterlimit="10" stroke-width="1"/><path d="M947.639,776.865,674.918,666.784,919.405,808.363Z" fill="none" stroke="rgba(65,168,255,0.7)" stroke-miterlimit="10" stroke-width="1"/><path d="M947.639,776.865,674.918,666.784,790.117,500Z" fill="none" stroke="rgba(65,168,255,0.7)" stroke-miterlimit="10" stroke-width="1"/><path d="M582.117,397l92.8,269.784L790.117,500Z" fill="none" stroke="rgba(65,168,255,0.7)" stroke-miterlimit="10" stroke-width="1"/><path d="M790.117,500l31,82-146.2,84.784" fill="none" stroke="rgba(65,168,255,0.7)" stroke-miterlimit="10" stroke-width="1"/><path d="M582.117,397l208,103-17-187Z" fill="none" stroke="rgba(65,168,255,0.7)" stroke-miterlimit="10" stroke-width="1"/><path d="M582.117,397l88-102,103,18Z" fill="none" stroke="rgba(65,168,255,0.7)" stroke-miterlimit="10" stroke-width="1"/><path d="M966.459,363,790.117,500l-17-187Z" fill="none" stroke="rgba(65,168,255,0.7)" stroke-miterlimit="10" stroke-width="1"/><path d="M966.459,363,822.117,255l-49,58Z" fill="none" stroke="rgba(65,168,255,0.7)" stroke-miterlimit="10" stroke-width="1"/><path d="M845.232,596.874,790.117,500l-17-187Z" fill="none" stroke="rgba(65,168,255,0.7)" stroke-miterlimit="10" stroke-width="1"/><path d="M947.639,776.865,869.783,973.334,726.45,856Z" fill="none" stroke="rgba(65,168,255,0.7)" stroke-miterlimit="10" stroke-width="1"/><path d="M947.639,776.865l-22.521,263.854L847.784,808.363Z" fill="none" stroke="rgba(65,168,255,0.7)" stroke-miterlimit="10" stroke-width="1"/><path d="M1174.877,719.867l159.743,57L1082.632,596.874Z" fill="none" stroke="rgba(65,168,255,0.7)" stroke-miterlimit="10" stroke-width="1"/><path d="M722.117,422l397,244.784-12.666,66.55Z" fill="none" stroke="rgba(65,168,255,0.7)" stroke-miterlimit="10" stroke-width="1"/><path d="M1170.987,836.875,966.46,817,854.117,573Z" fill="none" stroke="rgba(65,168,255,0.7)" stroke-miterlimit="10" stroke-width="1"/><path d="M1095.007,1032l323.11-195.125L996.117,928l98.89,104,103.689,8.719" fill="none" stroke="rgba(65,168,255,0.7)" stroke-miterlimit="10" stroke-width="1"/><path d="M1198.7,1040.719V808.363L1431.117,1036Z" fill="none" stroke="rgba(65,168,255,0.7)" stroke-miterlimit="10" stroke-width="1"/><path d="M1292.117,644,947.639,699l147.913,332.709Z" fill="none" stroke="rgba(65,168,255,0.7)" stroke-miterlimit="10" stroke-width="1"/><path d="M947.639,699l64.913-143,279.565,88" fill="none" stroke="rgba(65,168,255,0.7)" stroke-miterlimit="10" stroke-width="1"/><path d="M609.117,500l61-205-232,154Z" fill="none" stroke="rgba(65,168,255,0.7)" stroke-miterlimit="10" stroke-width="1"/><path d="M438.117,449l-23-63,221-33Z" fill="none" stroke="rgba(65,168,255,0.7)" stroke-miterlimit="10" stroke-width="1"/><path d="M545.117,313l309,260-318.7-204.964Z" fill="none" stroke="rgba(65,168,255,0.7)" stroke-miterlimit="10" stroke-width="1"/><path d="M677.617,34l-132.5,279h228Z" fill="none" stroke="rgba(65,168,255,0.7)" stroke-miterlimit="10" stroke-width="1"/><path d="M476.117,12l-7,243,208.5-221Z" fill="none" stroke="rgba(65,168,255,0.7)" stroke-miterlimit="10" stroke-width="1"/><path d="M476.117,12,665.536-46l12.081,80Z" fill="none" stroke="rgba(65,168,255,0.7)" stroke-miterlimit="10" stroke-width="1"/><path d="M636.117,353l-320-269,257.25,22Z" fill="none" stroke="rgba(65,168,255,0.7)" stroke-miterlimit="10" stroke-width="1"/><path d="M286.485,157.537,415.117,386l221-33Z" fill="none" stroke="rgba(65,168,255,0.7)" stroke-miterlimit="10" stroke-width="1"/></g><g transform="translate(-875.302 -518.925)" opacity="0.2"><path d="M764.772,794.418l-319.484,31.5,159.742-88.5Z" fill="none" stroke="rgba(65,168,255,0.7)" stroke-miterlimit="10" stroke-width="1"/><path d="M512.785,614.427l-67.5,211.489,159.742-88.5Z" fill="none" stroke="rgba(65,168,255,0.7)" stroke-miterlimit="10" stroke-width="1"/><path d="M536.6,750.887l-163.333,338L628.85,825.916Z" fill="none" stroke="rgba(65,168,255,0.7)" stroke-miterlimit="10" stroke-width="1"/><path d="M445.288,825.916l67.5-211.489L377.792,794.418Z" fill="none" stroke="rgba(65,168,255,0.7)" stroke-miterlimit="10" stroke-width="1"/><path d="M445.288,825.916l-97.351,140.3,29.854-171.8Z" fill="none" stroke="rgba(65,168,255,0.7)" stroke-miterlimit="10" stroke-width="1"/><path d="M445.288,825.916l-97.351,140.3,177.222,87.334Z" fill="none" stroke="rgba(65,168,255,0.7)" stroke-miterlimit="10" stroke-width="1"/><path d="M105.07,684.337l407.715-69.91L377.792,794.418Z" fill="none" stroke="rgba(65,168,255,0.7)" stroke-miterlimit="10" stroke-width="1"/><path d="M377.792,794.418,105.07,684.337,349.559,825.916Z" fill="none" stroke="rgba(65,168,255,0.7)" stroke-miterlimit="10" stroke-width="1"/><path d="M377.792,794.418,105.07,684.337l115.2-166.784Z" fill="none" stroke="rgba(65,168,255,0.7)" stroke-miterlimit="10" stroke-width="1"/><path d="M12.269,414.553l92.8,269.784,115.2-166.784Z" fill="none" stroke="rgba(65,168,255,0.7)" stroke-miterlimit="10" stroke-width="1"/><path d="M220.27,517.553l31,82-146.2,84.784" fill="none" stroke="rgba(65,168,255,0.7)" stroke-miterlimit="10" stroke-width="1"/><path d="M12.269,414.553l208,103-17-187Z" fill="none" stroke="rgba(65,168,255,0.7)" stroke-miterlimit="10" stroke-width="1"/><path d="M12.269,414.553l88-102,103,18Z" fill="none" stroke="rgba(65,168,255,0.7)" stroke-miterlimit="10" stroke-width="1"/><path d="M396.612,380.553l-176.343,137-17-187Z" fill="none" stroke="rgba(65,168,255,0.7)" stroke-miterlimit="10" stroke-width="1"/><path d="M396.612,380.553l-144.343-108-49,58Z" fill="none" stroke="rgba(65,168,255,0.7)" stroke-miterlimit="10" stroke-width="1"/><path d="M275.386,614.427,220.27,517.553l-17-187Z" fill="none" stroke="rgba(65,168,255,0.7)" stroke-miterlimit="10" stroke-width="1"/><path d="M377.792,794.418,299.936,990.887,156.6,873.553Z" fill="none" stroke="rgba(65,168,255,0.7)" stroke-miterlimit="10" stroke-width="1"/><path d="M377.792,794.418,355.27,1058.271,277.938,825.916Z" fill="none" stroke="rgba(65,168,255,0.7)" stroke-miterlimit="10" stroke-width="1"/><path d="M605.03,737.421l159.742,57L512.785,614.427Z" fill="none" stroke="rgba(65,168,255,0.7)" stroke-miterlimit="10" stroke-width="1"/><path d="M152.27,439.553l397,244.784L536.6,750.887Z" fill="none" stroke="rgba(65,168,255,0.7)" stroke-miterlimit="10" stroke-width="1"/><path d="M601.14,854.428,396.612,834.553l-112.343-244Z" fill="none" stroke="rgba(65,168,255,0.7)" stroke-miterlimit="10" stroke-width="1"/><path d="M525.159,1053.555l323.11-199.127-422,91.125,98.89,104,103.69,8.719" fill="none" stroke="rgba(65,168,255,0.7)" stroke-miterlimit="10" stroke-width="1"/><path d="M628.85,1058.271V825.916l232.42,227.639Z" fill="none" stroke="rgba(65,168,255,0.7)" stroke-miterlimit="10" stroke-width="1"/><path d="M722.269,661.553l-344.478,55,147.368,333Z" fill="none" stroke="rgba(65,168,255,0.7)" stroke-miterlimit="10" stroke-width="1"/><path d="M377.792,716.553l64.913-143,279.565,88" fill="none" stroke="rgba(65,168,255,0.7)" stroke-miterlimit="10" stroke-width="1"/><path d="M39.27,517.553l61-205-232,154Z" fill="none" stroke="rgba(65,168,255,0.7)" stroke-miterlimit="10" stroke-width="1"/><path d="M-131.73,466.553l-23-63,221-33Z" fill="none" stroke="rgba(65,168,255,0.7)" stroke-miterlimit="10" stroke-width="1"/><path d="M-24.73,330.553l309,260-318.7-204.964Z" fill="none" stroke="rgba(65,168,255,0.7)" stroke-miterlimit="10" stroke-width="1"/><path d="M107.77,51.553l-132.5,279h228Z" fill="none" stroke="rgba(65,168,255,0.7)" stroke-miterlimit="10" stroke-width="1"/><path d="M-93.73,29.553l-7,243,208.5-221Z" fill="none" stroke="rgba(65,168,255,0.7)" stroke-miterlimit="10" stroke-width="1"/><path d="M-93.73,29.553l189.42-58,12.08,80Z" fill="none" stroke="rgba(65,168,255,0.7)" stroke-miterlimit="10" stroke-width="1"/><path d="M225.27,128.553l-326,144-169-139Z" fill="none" stroke="rgba(65,168,255,0.7)" stroke-miterlimit="10" stroke-width="1"/><path d="M66.27,370.553l-320-269,257.25,22Z" fill="none" stroke="rgba(65,168,255,0.7)" stroke-miterlimit="10" stroke-width="1"/><path d="M-269.73,133.553l115,270,221-33Z" fill="none" stroke="rgba(65,168,255,0.7)" stroke-miterlimit="10" stroke-width="1"/></g><g transform="translate(-786.27 -403.019)"><path d="M720.566,856a5.884,5.884,0,1,1,5.884,5.883A5.883,5.883,0,0,1,720.566,856Z" fill="rgba(65,168,255,0.7)"/><path d="M1007.095,808.363a8.041,8.041,0,1,1,8.04,8.041A8.04,8.04,0,0,1,1007.095,808.363Z" fill="rgba(65,168,255,0.7)"/><circle cx="6.207" cy="6.207" r="6.207" transform="translate(913.66 801.406)" fill="rgba(65,168,255,0.7)"/><path d="M941.432,776.865a6.207,6.207,0,1,1,6.207,6.207A6.208,6.208,0,0,1,941.432,776.865Z" fill="rgba(65,168,255,0.7)"/><circle cx="9.832" cy="9.832" r="9.832" transform="translate(956.628 807.168)" fill="rgba(65,168,255,0.7)"/><path d="M863.233,973.334a5.884,5.884,0,1,1,5.884,5.883A5.883,5.883,0,0,1,863.233,973.334Z" fill="rgba(65,168,255,0.7)"/><circle cx="7.707" cy="7.707" r="7.707" transform="translate(1408.686 837.623) rotate(-45)" fill="rgba(65,168,255,0.7)"/><path d="M941.182,699a6.457,6.457,0,1,1,6.457,6.457A6.457,6.457,0,0,1,941.182,699Z" fill="rgba(65,168,255,0.7)"/><path d="M1331.16,776.865a6.457,6.457,0,1,1,6.457,6.457A6.458,6.458,0,0,1,1331.16,776.865Z" fill="rgba(65,168,255,0.7)"/><path d="M1166.67,720.742a7.332,7.332,0,1,1,7.332,7.332A7.331,7.331,0,0,1,1166.67,720.742Z" fill="rgba(65,168,255,0.7)"/><circle cx="7.332" cy="7.332" r="7.332" transform="translate(1099.67 726.002)" fill="rgba(65,168,255,0.7)"/><circle cx="7.332" cy="7.332" r="7.332" transform="translate(1005.22 548.668)" fill="rgba(65,168,255,0.7)"/><circle cx="7.332" cy="7.332" r="7.332" transform="translate(1114.535 580.168)" fill="rgba(65,168,255,0.7)"/><circle cx="8.707" cy="8.707" r="8.707" transform="translate(1111.785 663.168)" fill="rgba(65,168,255,0.7)"/><circle cx="8.957" cy="8.957" r="8.957" transform="translate(1187.239 799.406)" fill="rgba(65,168,255,0.7)"/><path d="M665.711,666.783a9.207,9.207,0,1,1,9.207,9.207A9.206,9.206,0,0,1,665.711,666.783Z" fill="rgba(65,168,255,0.7)"/><path d="M848.8,573a9.207,9.207,0,1,1,9.207,9.207A9.207,9.207,0,0,1,848.8,573Z" fill="rgba(65,168,255,0.7)"/><path d="M707.41,419.25a11.957,11.957,0,1,1,11.957,11.957A11.958,11.958,0,0,1,707.41,419.25Z" fill="rgba(65,168,255,0.7)"/><path d="M766.785,313a6.332,6.332,0,1,1,6.332,6.332A6.332,6.332,0,0,1,766.785,313Z" fill="rgba(65,168,255,0.7)"/><path d="M817.536,255a4.581,4.581,0,1,1,4.581,4.581A4.581,4.581,0,0,1,817.536,255Z" fill="rgba(65,168,255,0.7)"/><path d="M665.536,294.25a5.331,5.331,0,1,1,5.331,5.331A5.331,5.331,0,0,1,665.536,294.25Z" fill="rgba(65,168,255,0.7)"/><path d="M575.286,397a6.831,6.831,0,1,1,6.831,6.832A6.831,6.831,0,0,1,575.286,397Z" fill="rgba(65,168,255,0.7)"/><path d="M538.286,313a6.831,6.831,0,1,1,6.831,6.832A6.831,6.831,0,0,1,538.286,313Z" fill="rgba(65,168,255,0.7)"/><path d="M670.786,34a6.831,6.831,0,1,1,6.831,6.832A6.831,6.831,0,0,1,670.786,34Z" fill="rgba(65,168,255,0.7)"/><path d="M463.856,9.068a9.761,9.761,0,1,1,9.761,9.763A9.76,9.76,0,0,1,463.856,9.068Z" fill="rgba(65,168,255,0.7)"/><path d="M306.356,84a9.761,9.761,0,1,1,9.761,9.762A9.761,9.761,0,0,1,306.356,84Z" fill="rgba(65,168,255,0.7)"/><path d="M560.6,104.5a11.261,11.261,0,1,1,11.262,11.263A11.262,11.262,0,0,1,560.6,104.5Z" fill="rgba(65,168,255,0.7)"/><path d="M526.523,367a7.865,7.865,0,1,1,7.865,7.865A7.864,7.864,0,0,1,526.523,367Z" fill="rgba(65,168,255,0.7)"/><path d="M955.742,360.808a8.525,8.525,0,1,1,8.526,8.524A8.526,8.526,0,0,1,955.742,360.808Z" fill="rgba(65,168,255,0.7)"/><path d="M816.244,582a4.873,4.873,0,1,1,4.873,4.874A4.873,4.873,0,0,1,816.244,582Z" fill="rgba(65,168,255,0.7)"/><path d="M760.744,614.5a4.873,4.873,0,1,1,4.873,4.873A4.873,4.873,0,0,1,760.744,614.5Z" fill="rgba(65,168,255,0.7)"/><path d="M461.661,255a7.464,7.464,0,1,1,7.456,7.1A7.284,7.284,0,0,1,461.661,255Z" fill="rgba(65,168,255,0.7)"/></g><g transform="translate(-786.27 -403.019)" opacity="0.3"><path d="M514.984,286.8a8.04,8.04,0,1,1-6.62-9.246A8.039,8.039,0,0,1,514.984,286.8Z" transform="translate(-31.857 24.065)" fill="rgba(65,168,255,0.7)"/><path d="M574.626,328.592a6.207,6.207,0,1,1-5.11-7.137A6.207,6.207,0,0,1,574.626,328.592Z" transform="translate(-31.74 175.184)" fill="rgba(65,168,255,0.7)"/><path d="M566.184,286.515a9.832,9.832,0,1,1-8.1-11.305A9.83,9.83,0,0,1,566.184,286.515Z" fill="rgba(65,168,255,0.7)"/><path d="M470.189,50.431a5.138,5.138,0,1,1-4.231-5.908A5.138,5.138,0,0,1,470.189,50.431Z" fill="rgba(65,168,255,0.7)"/><path d="M120.4,191.865A7.707,7.707,0,1,1,114.059,183,7.708,7.708,0,0,1,120.4,191.865Z" fill="rgba(65,168,255,0.7)"/><path d="M562.164,405.453a6.457,6.457,0,1,1-5.316-7.424A6.458,6.458,0,0,1,562.164,405.453Z" fill="rgba(65,168,255,0.7)"/><path d="M190.124,264.981a6.457,6.457,0,1,1-5.317-7.423A6.457,6.457,0,0,1,190.124,264.981Z" fill="rgba(65,168,255,0.7)"/><path d="M389.421,404.37a8.707,8.707,0,1,1-7.169-10.012A8.707,8.707,0,0,1,389.421,404.37Z" fill="rgba(65,168,255,0.7)"/><path d="M337.255,257.4a8.957,8.957,0,1,1-7.375-10.3A8.956,8.956,0,0,1,337.255,257.4Z" fill="rgba(65,168,255,0.7)"/><path d="M828.683,482.2a9.207,9.207,0,1,1-7.581-10.587A9.206,9.206,0,0,1,828.683,482.2Z" fill="rgba(65,168,255,0.7)"/><path d="M747.141,719.607a11.957,11.957,0,1,1-9.844-13.748A11.957,11.957,0,0,1,747.141,719.607Z" fill="rgba(65,168,255,0.7)"/><path d="M671.221,814.742a6.332,6.332,0,1,1-5.213-7.281A6.33,6.33,0,0,1,671.221,814.742Z" fill="rgba(65,168,255,0.7)"/><path d="M611.684,863.682a4.581,4.581,0,1,1-3.772-5.268A4.581,4.581,0,0,1,611.684,863.682Z" fill="rgba(65,168,255,0.7)"/><path d="M768.052,849.766a5.331,5.331,0,1,1-4.39-6.129A5.331,5.331,0,0,1,768.052,849.766Z" fill="rgba(65,168,255,0.7)"/><path d="M873.861,763.125a6.83,6.83,0,1,1-5.624-7.855A6.831,6.831,0,0,1,873.861,763.125Z" fill="rgba(65,168,255,0.7)"/><path d="M896.655,852.037a6.83,6.83,0,1,1-5.624-7.855A6.831,6.831,0,0,1,896.655,852.037Z" fill="rgba(65,168,255,0.7)"/><path d="M796.045,801.607a7.864,7.864,0,1,1-6.476-9.042A7.864,7.864,0,0,1,796.045,801.607Z" fill="rgba(65,168,255,0.7)"/><path d="M726.391,518.271a4.874,4.874,0,1,1-4.013-5.6A4.874,4.874,0,0,1,726.391,518.271Z" fill="rgba(65,168,255,0.7)"/><path d="M962.787,921.766a7.465,7.465,0,1,1-6.2-8.223A7.285,7.285,0,0,1,962.787,921.766Z" fill="rgba(65,168,255,0.7)"/><path d="M607.044,302.788a6.207,6.207,0,1,1-5.11-7.137A6.207,6.207,0,0,1,607.044,302.788Z" transform="translate(75.203 -28.433)" fill="rgba(65,168,255,0.7)"/><path d="M607.044,302.788a6.207,6.207,0,1,1-5.11-7.137A6.207,6.207,0,0,1,607.044,302.788Z" transform="translate(153.074 72.864)" fill="rgba(65,168,255,0.7)"/></g><g transform="translate(-786.27 -403.019)"><circle cx="10.225" cy="10.225" r="10.225" transform="translate(907.56 938.443)" fill="none" stroke="rgba(65,168,255,0.7)" stroke-miterlimit="10" stroke-width="2.486"/><path d="M917.784,942.172a6.495,6.495,0,1,1-6.495,6.5A6.5,6.5,0,0,1,917.784,942.172Z" fill="rgba(65,168,255,0.7)"/><circle cx="10.225" cy="10.225" r="10.225" transform="translate(837.56 798.139)" fill="none" stroke="rgba(65,168,255,0.7)" stroke-miterlimit="10" stroke-width="2.486"/><path d="M847.784,801.869a6.495,6.495,0,1,1-6.495,6.494A6.5,6.5,0,0,1,847.784,801.869Z" fill="rgba(65,168,255,0.7)"/><path d="M852.045,991.871a7.219,7.219,0,1,1,7.219,7.221A7.22,7.22,0,0,1,852.045,991.871Z" fill="none" stroke="rgba(65,168,255,0.7)" stroke-miterlimit="10" stroke-width="1.756"/><path d="M859.264,987.285a4.587,4.587,0,1,1-4.586,4.586A4.593,4.593,0,0,1,859.264,987.285Z" fill="rgba(65,168,255,0.7)"/><circle cx="10.225" cy="10.225" r="10.225" transform="translate(1281.893 633)" fill="none" stroke="rgba(65,168,255,0.7)" stroke-miterlimit="10" stroke-width="2.486"/><path d="M1292.117,636.73a6.5,6.5,0,1,1-6.5,6.495A6.5,6.5,0,0,1,1292.117,636.73Z" fill="rgba(65,168,255,0.7)"/><path d="M988.9,591.334a8.159,8.159,0,1,1,8.158,8.158A8.16,8.16,0,0,1,988.9,591.334Z" fill="none" stroke="rgba(65,168,255,0.7)" stroke-miterlimit="10" stroke-width="1.984"/><path d="M997.06,586.15a5.183,5.183,0,1,1-5.182,5.184A5.19,5.19,0,0,1,997.06,586.15Z" fill="rgba(65,168,255,0.7)"/><circle cx="7.711" cy="7.711" r="7.711" transform="translate(621.851 545.248) rotate(-45)" fill="none" stroke="rgba(65,168,255,0.7)" stroke-miterlimit="10" stroke-width="1.875"/><path d="M632.756,540.35a4.9,4.9,0,1,1-4.9,4.9A4.9,4.9,0,0,1,632.756,540.35Z" fill="rgba(65,168,255,0.7)"/><path d="M399.624,382.333a11.826,11.826,0,1,1,11.826,11.826A11.827,11.827,0,0,1,399.624,382.333Z" fill="none" stroke="rgba(65,168,255,0.7)" stroke-miterlimit="10" stroke-width="2.876"/><path d="M411.45,374.821a7.512,7.512,0,1,1-7.512,7.512A7.52,7.52,0,0,1,411.45,374.821Z" fill="rgba(65,168,255,0.7)"/><circle cx="9.313" cy="9.313" r="9.313" transform="translate(626.805 343.688)" fill="none" stroke="rgba(65,168,255,0.7)" stroke-miterlimit="10" stroke-width="2.264"/><path d="M636.117,347.085A5.915,5.915,0,1,1,630.2,353,5.921,5.921,0,0,1,636.117,347.085Z" fill="rgba(65,168,255,0.7)"/><g transform="translate(-12.899 40.726)"><path d="M290.7,115.761a9.412,9.412,0,1,1,9.412,9.413A9.412,9.412,0,0,1,290.7,115.761Z" fill="none" stroke="rgba(65,168,255,0.7)" stroke-miterlimit="10" stroke-width="2.289"/><path d="M300.116,109.782a5.979,5.979,0,1,1-5.979,5.979A5.986,5.986,0,0,1,300.116,109.782Z" fill="rgba(65,168,255,0.7)"/></g></g></g><g transform="matrix(0.985, 0.174, -0.174, 0.985, 631.221, -2.599)"><path d="M15.974,9.355A8.04,8.04,0,1,1,9.354.109,8.039,8.039,0,0,1,15.974,9.355Z" transform="matrix(0.259, -0.966, 0.966, 0.259, 597.261, 390.029)" fill="rgba(71,141,175,0.1)"/><path d="M12.332,7.221A6.207,6.207,0,1,1,7.222.084,6.207,6.207,0,0,1,12.332,7.221Z" transform="matrix(0.259, -0.966, 0.966, 0.259, 802.07, 379.27)" fill="rgba(71,141,175,0.1)"/><path d="M15.312,8.966A7.707,7.707,0,1,1,8.966.1,7.708,7.708,0,0,1,15.312,8.966Z" transform="matrix(0.259, -0.966, 0.966, 0.259, 388.984, 709.053)" fill="rgba(71,141,175,0.1)"/><path d="M12.829,7.512A6.457,6.457,0,1,1,7.513.088,6.458,6.458,0,0,1,12.829,7.512Z" transform="matrix(0.259, -0.966, 0.966, 0.259, 711.678, 335.606)" fill="rgba(71,141,175,0.1)"/><path d="M12.829,7.511A6.457,6.457,0,1,1,7.512.088,6.457,6.457,0,0,1,12.829,7.511Z" transform="matrix(0.259, -0.966, 0.966, 0.259, 565.728, 645.474)" fill="rgba(71,141,175,0.1)"/><path d="M7.536,4.412A3.793,3.793,0,1,1,4.413.051,3.793,3.793,0,0,1,7.536,4.412Z" transform="matrix(0.259, -0.966, 0.966, 0.259, 89.85, 742.292)" fill="rgba(71,141,175,0.1)"/><path d="M17.3,10.13A8.707,8.707,0,1,1,10.129.118,8.707,8.707,0,0,1,17.3,10.13Z" transform="matrix(0.259, -0.966, 0.966, 0.259, 662.236, 505.822)" fill="rgba(71,141,175,0.1)"/><path d="M18.292,10.712A9.207,9.207,0,1,1,10.711.125,9.206,9.206,0,0,1,18.292,10.712Z" transform="matrix(0.259, -0.966, 0.966, 0.259, 850.284, 102.481)" fill="rgba(71,141,175,0.1)"/><path d="M9.683,5.67A4.874,4.874,0,1,1,5.67.066,4.874,4.874,0,0,1,9.683,5.67Z" transform="matrix(0.259, -0.966, 0.966, 0.259, 865.75, 203.612)" fill="rgba(71,141,175,0.1)"/><path d="M12.332,7.221A6.207,6.207,0,1,1,7.222.084,6.207,6.207,0,0,1,12.332,7.221Z" transform="matrix(0.259, -0.966, 0.966, 0.259, 616.536, 185.278)" fill="rgba(71,141,175,0.1)"/><path d="M12.332,7.221A6.207,6.207,0,1,1,7.222.084,6.207,6.207,0,0,1,12.332,7.221Z" transform="matrix(0.259, -0.966, 0.966, 0.259, 734.536, 136.278)" fill="rgba(71,141,175,0.1)"/><path d="M12.332,7.221A6.207,6.207,0,1,1,7.222.084,6.207,6.207,0,0,1,12.332,7.221Z" transform="matrix(0.259, -0.966, 0.966, 0.259, 523.752, 11.993)" fill="rgba(71,141,175,0.1)"/><path d="M15.312,8.966A7.707,7.707,0,1,1,8.966.1,7.708,7.708,0,0,1,15.312,8.966Z" transform="matrix(0.259, -0.966, 0.966, 0.259, 220.929, 740.717)" fill="rgba(71,141,175,0.1)"/><path d="M7.536,4.412A3.793,3.793,0,1,1,4.413.051,3.793,3.793,0,0,1,7.536,4.412Z" transform="matrix(0.259, -0.966, 0.966, 0.259, 0, 768.289)" fill="rgba(71,141,175,0.1)"/><path d="M7.536,4.412A3.793,3.793,0,1,1,4.413.051,3.793,3.793,0,0,1,7.536,4.412Z" transform="matrix(0.259, -0.966, 0.966, 0.259, 48.907, 654.061)" fill="rgba(71,141,175,0.1)"/></g></g></svg>