<svg xmlns="http://www.w3.org/2000/svg" width="194.622" height="69.394" viewBox="0 0 194.622 69.394"><defs><style>.a{fill:#477c96;}</style></defs><g transform="translate(-0.08 -0.002)"><path class="a" d="M464.764,376.017a1.937,1.937,0,0,0-.127.452,12.244,12.244,0,0,1-2.666,6.9,12.912,12.912,0,0,1-8.108,4.926,12.364,12.364,0,0,1-2.26.2c-7.041,0-14.078.077-21.119,0a12.759,12.759,0,0,1-11.326-6.58,12.1,12.1,0,0,1-1.749-6.264V351.784a2.713,2.713,0,0,1,.28-1.207q5.152-10.765,10.286-21.53,2.129-4.47,4.253-8.939c.091-.181.19-.357.294-.56.172,0,.339-.027.511-.027h18.688a13.147,13.147,0,0,1,12.717,10.322c.118.529.14,1.076.222,1.613a3.808,3.808,0,0,0,.126.484Zm-15.483-22V337.15a4.851,4.851,0,0,0,0-.511.818.818,0,0,0-.687-.777,2.532,2.532,0,0,0-.556-.041H434.073a3.433,3.433,0,0,0-.375,0,.9.9,0,0,0-.877.863,3.465,3.465,0,0,0,0,.375v33.814a2.541,2.541,0,0,0,.045.556.818.818,0,0,0,.773.687h14.317c1.1,0,1.32-.221,1.32-1.3Z" transform="translate(-270.084 -319.487)"/><path class="a" d="M230.732,319.5H246.1a3.125,3.125,0,0,1,.068.334v55.408a13.142,13.142,0,0,1-11.145,13.047,15.916,15.916,0,0,1-2.318.176c-6.915,0-13.829.032-20.744,0a13.151,13.151,0,0,1-12.826-10.395,12.288,12.288,0,0,1-.285-2.635V334.809a2.075,2.075,0,0,1,.2-.99q3.421-6.928,6.829-13.865c.077-.154.163-.3.267-.484h8.081c.027.172.054.276.059.38s0,.312,0,.452V371.28a.827.827,0,0,0,.8.818h14.48a3.512,3.512,0,0,0,.375,0,.827.827,0,0,0,.773-.791V319.5Z" transform="translate(-150.297 -319.46)"/><path class="a" d="M125.147,388.846h-15.14c0-.28-.045-.493-.045-.7V354.933a3.056,3.056,0,0,0-.371-1.514q-4.763-8.917-9.491-17.838-3.24-6.079-6.472-12.162c-.606-1.139-1.22-2.26-1.808-3.417-.081-.145-.149-.3-.221-.452.371-.118,14.683-.136,15.221-.023.262.493.547,1.008.823,1.532L119.7,343.68c1.781,3.34,3.552,6.68,5.342,10.015a1.808,1.808,0,0,1,.181.9v33.556A4.286,4.286,0,0,0,125.147,388.846Z" transform="translate(-91.52 -319.45)"/><path class="a" d="M345.926,388.735q-10.675-34.682-21.286-69.147c.411-.108,14.661-.127,15.221-.027.054.145.135.307.19.484l4.217,13.558q3.313,10.67,6.639,21.341,2.332,7.484,4.669,14.968a1.212,1.212,0,0,1-.095,1.021q-3.078,5.713-6.133,11.443l-3.164,5.875C346.13,388.368,346.044,388.5,345.926,388.735Z" transform="translate(-219.24 -319.474)"/></g></svg>